<svg xmlns="http://www.w3.org/2000/svg" xmlns:xlink="http://www.w3.org/1999/xlink" width="40" zoomAndPan="magnify" viewBox="0 0 30 30.000001" height="40" preserveAspectRatio="xMidYMid meet" version="1.0"><defs><clipPath id="86cf684d49"><path d="M 5 0.699219 L 24 0.699219 L 24 24 L 5 24 Z M 5 0.699219 " clip-rule="nonzero"/></clipPath><clipPath id="293ce315d0"><path d="M 2.5625 18 L 26.515625 18 L 26.515625 27.550781 L 2.5625 27.550781 Z M 2.5625 18 " clip-rule="nonzero"/></clipPath></defs><g clip-path="url(#86cf684d49)"><path fill="#e8e8e8" d="M 9.816406 5.152344 C 8.664062 6.273438 7.886719 7.972656 7.886719 10.308594 C 7.886719 11.753906 8.671875 13.632812 9.902344 15.625 C 11.101562 17.5625 12.597656 19.402344 13.75 20.710938 C 14.183594 21.203125 14.894531 21.203125 15.328125 20.710938 C 16.480469 19.402344 17.976562 17.5625 19.175781 15.625 C 20.410156 13.632812 21.191406 11.753906 21.191406 10.308594 C 21.191406 7.972656 20.414062 6.273438 19.261719 5.152344 C 18.097656 4.023438 16.449219 3.386719 14.539062 3.386719 C 12.628906 3.386719 10.980469 4.023438 9.816406 5.152344 Z M 7.972656 3.21875 C 9.699219 1.542969 12.039062 0.699219 14.539062 0.699219 C 17.039062 0.699219 19.382812 1.542969 21.109375 3.21875 C 22.84375 4.90625 23.855469 7.335938 23.855469 10.308594 C 23.855469 12.550781 22.714844 14.976562 21.433594 17.046875 C 20.125 19.164062 18.519531 21.128906 17.320312 22.492188 C 15.828125 24.191406 13.25 24.191406 11.757812 22.492188 C 10.558594 21.128906 8.953125 19.164062 7.644531 17.046875 C 6.363281 14.976562 5.226562 12.550781 5.226562 10.308594 C 5.226562 7.335938 6.234375 4.90625 7.972656 3.21875 Z M 7.972656 3.21875 " fill-opacity="1" fill-rule="evenodd"/></g><path fill="#e8e8e8" d="M 14.539062 7.414062 C 13.804688 7.414062 13.207031 8.015625 13.207031 8.753906 C 13.207031 9.496094 13.804688 10.097656 14.539062 10.097656 C 15.273438 10.097656 15.871094 9.496094 15.871094 8.753906 C 15.871094 8.015625 15.273438 7.414062 14.539062 7.414062 Z M 10.546875 8.753906 C 10.546875 6.53125 12.335938 4.726562 14.539062 4.726562 C 16.742188 4.726562 18.53125 6.53125 18.53125 8.753906 C 18.53125 10.980469 16.742188 12.78125 14.539062 12.78125 C 12.335938 12.78125 10.546875 10.980469 10.546875 8.753906 Z M 10.546875 8.753906 " fill-opacity="1" fill-rule="evenodd"/><g clip-path="url(#293ce315d0)"><path fill="#e8e8e8" d="M 10.464844 18.398438 L 11.210938 18.398438 L 11.210938 21.082031 L 10.632812 21.082031 C 8.792969 21.320312 7.304688 21.71875 6.308594 22.175781 C 5.800781 22.410156 5.488281 22.628906 5.320312 22.792969 C 5.300781 22.816406 5.28125 22.835938 5.269531 22.851562 C 5.3125 22.902344 5.390625 22.980469 5.519531 23.078125 C 5.894531 23.355469 6.519531 23.664062 7.410156 23.941406 C 9.175781 24.5 11.695312 24.863281 14.539062 24.863281 C 17.382812 24.863281 19.902344 24.5 21.667969 23.941406 C 22.558594 23.664062 23.183594 23.355469 23.558594 23.078125 C 23.6875 22.980469 23.765625 22.902344 23.808594 22.851562 C 23.796875 22.835938 23.777344 22.816406 23.757812 22.792969 C 23.589844 22.628906 23.277344 22.410156 22.769531 22.175781 C 21.773438 21.71875 20.285156 21.320312 18.445312 21.082031 L 17.867188 21.082031 L 17.867188 18.398438 L 18.613281 18.398438 L 18.699219 18.40625 C 20.722656 18.664062 22.53125 19.117188 23.871094 19.730469 C 24.539062 20.039062 25.160156 20.414062 25.628906 20.886719 C 26.105469 21.363281 26.515625 22.023438 26.515625 22.851562 C 26.515625 23.941406 25.816406 24.730469 25.136719 25.238281 C 24.433594 25.761719 23.5 26.179688 22.464844 26.503906 C 20.375 27.164062 17.574219 27.550781 14.539062 27.550781 C 11.503906 27.550781 8.703125 27.164062 6.613281 26.503906 C 5.578125 26.179688 4.644531 25.761719 3.941406 25.238281 C 3.261719 24.730469 2.5625 23.941406 2.5625 22.851562 C 2.5625 22.023438 2.972656 21.363281 3.449219 20.886719 C 3.917969 20.414062 4.539062 20.039062 5.207031 19.730469 C 6.546875 19.117188 8.355469 18.664062 10.378906 18.40625 Z M 10.464844 18.398438 " fill-opacity="1" fill-rule="evenodd"/></g></svg>