<svg xmlns="http://www.w3.org/2000/svg" xmlns:xlink="http://www.w3.org/1999/xlink" width="40" zoomAndPan="magnify" viewBox="0 0 30 30.000001" height="40" preserveAspectRatio="xMidYMid meet" version="1.0"><defs><clipPath id="67fdb0201e"><path d="M 0.484375 3.351562 L 29.515625 3.351562 L 29.515625 15 L 0.484375 15 Z M 0.484375 3.351562 " clip-rule="nonzero"/></clipPath><clipPath id="b43bb72d54"><path d="M 0.484375 8 L 29.515625 8 L 29.515625 25.851562 L 0.484375 25.851562 Z M 0.484375 8 " clip-rule="nonzero"/></clipPath></defs><g clip-path="url(#67fdb0201e)"><path fill="#e8e8e8" d="M 15 14.414062 L 29.507812 5.640625 L 29.507812 5.601562 C 29.507812 5.304688 29.449219 5.015625 29.335938 4.742188 C 29.222656 4.464844 29.0625 4.222656 28.851562 4.011719 C 28.644531 3.800781 28.402344 3.636719 28.128906 3.523438 C 27.855469 3.410156 27.570312 3.351562 27.273438 3.351562 L 2.726562 3.351562 C 2.429688 3.351562 2.144531 3.410156 1.871094 3.523438 C 1.597656 3.636719 1.355469 3.800781 1.148438 4.011719 C 0.9375 4.222656 0.777344 4.464844 0.664062 4.742188 C 0.550781 5.015625 0.492188 5.304688 0.492188 5.601562 L 0.492188 5.640625 Z M 15 14.414062 " fill-opacity="1" fill-rule="nonzero"/></g><g clip-path="url(#b43bb72d54)"><path fill="#e8e8e8" d="M 15.574219 16.691406 C 15.191406 16.921875 14.808594 16.921875 14.425781 16.691406 L 0.492188 8.261719 L 0.492188 23.601562 C 0.492188 23.898438 0.550781 24.1875 0.664062 24.464844 C 0.777344 24.738281 0.9375 24.980469 1.148438 25.191406 C 1.355469 25.402344 1.597656 25.566406 1.871094 25.679688 C 2.144531 25.792969 2.429688 25.851562 2.726562 25.851562 L 27.273438 25.851562 C 27.570312 25.851562 27.855469 25.792969 28.128906 25.679688 C 28.402344 25.566406 28.644531 25.402344 28.851562 25.191406 C 29.0625 24.980469 29.222656 24.738281 29.335938 24.464844 C 29.449219 24.1875 29.507812 23.898438 29.507812 23.601562 L 29.507812 8.261719 Z M 15.574219 16.691406 " fill-opacity="1" fill-rule="nonzero"/></g></svg>