<svg xmlns="http://www.w3.org/2000/svg" xmlns:xlink="http://www.w3.org/1999/xlink" width="40" zoomAndPan="magnify" viewBox="0 0 30 30.000001" height="40" preserveAspectRatio="xMidYMid meet" version="1.0"><defs><clipPath id="42d7f4fee8"><path d="M 4.421875 0 L 25 0 L 25 29 L 4.421875 29 Z M 4.421875 0 " clip-rule="nonzero"/></clipPath><clipPath id="c29f9a5701"><path d="M 18 19 L 25.46875 19 L 25.46875 27 L 18 27 Z M 18 19 " clip-rule="nonzero"/></clipPath></defs><g clip-path="url(#42d7f4fee8)"><path fill="#e8e8e8" d="M 10.578125 0.167969 C 10.578125 0.167969 4.449219 0.246094 4.53125 5.828125 C 4.609375 11.40625 5.722656 16.335938 7.554688 19.085938 C 9.386719 21.835938 14.082031 29.03125 19.414062 28.304688 C 19.414062 28.304688 22.039062 27.738281 24.03125 26.445312 L 17.582031 21.351562 C 17.582031 21.351562 15.671875 22.5625 14.480469 20.945312 C 13.285156 19.328125 9.542969 11.808594 9.542969 11.808594 C 9.542969 11.808594 8.507812 9.382812 10.816406 8.332031 Z M 10.578125 0.167969 " fill-opacity="1" fill-rule="nonzero"/></g><path fill="#e8e8e8" d="M 11.296875 0.167969 C 11.296875 0.167969 11.773438 0.00390625 12.648438 0.492188 C 13.523438 0.976562 13.523438 1.378906 13.523438 1.378906 L 13.601562 6.957031 C 13.601562 6.957031 13.363281 7.28125 13.046875 7.605469 C 12.726562 7.929688 11.691406 8.414062 11.535156 8.089844 C 11.375 7.765625 11.296875 0.167969 11.296875 0.167969 Z M 11.296875 0.167969 " fill-opacity="1" fill-rule="nonzero"/><g clip-path="url(#c29f9a5701)"><path fill="#e8e8e8" d="M 18.117188 20.753906 L 19.890625 19.8125 C 19.890625 19.8125 20.289062 19.734375 20.925781 20.136719 C 21.5625 20.542969 24.90625 23.210938 24.90625 23.210938 C 24.90625 23.210938 25.460938 23.695312 25.304688 24.261719 C 25.144531 24.828125 24.746094 26.039062 24.746094 26.039062 Z M 18.117188 20.753906 " fill-opacity="1" fill-rule="nonzero"/></g></svg>