<svg xmlns="http://www.w3.org/2000/svg" xmlns:xlink="http://www.w3.org/1999/xlink" width="40" zoomAndPan="magnify" viewBox="0 0 30 30.000001" height="40" preserveAspectRatio="xMidYMid meet" version="1.0"><defs><clipPath id="aeea89840a"><path d="M 1.371094 0.886719 L 28.226562 0.886719 L 28.226562 27.742188 L 1.371094 27.742188 Z M 1.371094 0.886719 " clip-rule="nonzero"/></clipPath><clipPath id="faebfc9757"><path d="M 6.148438 5.664062 L 23.566406 5.664062 L 23.566406 23.082031 L 6.148438 23.082031 Z M 6.148438 5.664062 " clip-rule="nonzero"/></clipPath></defs><g clip-path="url(#aeea89840a)"><path fill="#403f3f" d="M 14.800781 0.886719 C 7.382812 0.886719 1.371094 6.898438 1.371094 14.316406 C 1.371094 21.730469 7.382812 27.742188 14.800781 27.742188 C 22.214844 27.742188 28.226562 21.730469 28.226562 14.316406 C 28.226562 6.898438 22.214844 0.886719 14.800781 0.886719 " fill-opacity="1" fill-rule="nonzero"/></g><g clip-path="url(#faebfc9757)"><path fill="#cbc8c8" d="M 14.855469 7.234375 C 17.179688 7.234375 17.453125 7.242188 18.371094 7.285156 C 19.21875 7.324219 19.683594 7.464844 19.992188 7.585938 C 20.394531 7.742188 20.6875 7.933594 20.992188 8.238281 C 21.296875 8.542969 21.484375 8.835938 21.644531 9.238281 C 21.761719 9.542969 21.902344 10.003906 21.945312 10.855469 C 21.988281 11.777344 21.996094 12.050781 21.996094 14.375 C 21.996094 16.699219 21.988281 16.976562 21.945312 17.894531 C 21.90625 18.742188 21.765625 19.203125 21.644531 19.511719 C 21.488281 19.917969 21.296875 20.207031 20.992188 20.511719 C 20.6875 20.820312 20.394531 21.003906 19.992188 21.164062 C 19.6875 21.285156 19.222656 21.425781 18.371094 21.46875 C 17.453125 21.507812 17.179688 21.515625 14.855469 21.515625 C 12.53125 21.515625 12.253906 21.507812 11.335938 21.46875 C 10.488281 21.429688 10.027344 21.289062 9.714844 21.164062 C 9.3125 21.007812 9.023438 20.820312 8.714844 20.511719 C 8.410156 20.207031 8.222656 19.917969 8.0625 19.511719 C 7.945312 19.207031 7.804688 18.746094 7.761719 17.894531 C 7.71875 16.976562 7.714844 16.699219 7.714844 14.375 C 7.714844 12.050781 7.71875 11.777344 7.761719 10.855469 C 7.800781 10.007812 7.941406 9.546875 8.0625 9.238281 C 8.21875 8.835938 8.410156 8.542969 8.714844 8.238281 C 9.023438 7.933594 9.3125 7.746094 9.714844 7.585938 C 10.023438 7.46875 10.484375 7.328125 11.335938 7.285156 C 12.253906 7.242188 12.53125 7.234375 14.855469 7.234375 M 14.855469 5.667969 C 12.488281 5.667969 12.195312 5.675781 11.261719 5.71875 C 10.335938 5.761719 9.703125 5.910156 9.148438 6.125 C 8.574219 6.34375 8.089844 6.644531 7.605469 7.128906 C 7.125 7.613281 6.828125 8.097656 6.605469 8.667969 C 6.390625 9.222656 6.242188 9.855469 6.203125 10.785156 C 6.160156 11.710938 6.148438 12.007812 6.148438 14.371094 C 6.148438 16.738281 6.160156 17.03125 6.203125 17.964844 C 6.242188 18.890625 6.390625 19.523438 6.605469 20.078125 C 6.828125 20.652344 7.125 21.136719 7.609375 21.621094 C 8.09375 22.105469 8.578125 22.402344 9.152344 22.625 C 9.707031 22.835938 10.339844 22.984375 11.265625 23.027344 C 12.195312 23.070312 12.492188 23.082031 14.859375 23.082031 C 17.222656 23.082031 17.519531 23.070312 18.449219 23.027344 C 19.375 22.984375 20.011719 22.835938 20.5625 22.625 C 21.136719 22.402344 21.621094 22.105469 22.105469 21.621094 C 22.589844 21.136719 22.886719 20.652344 23.109375 20.078125 C 23.324219 19.523438 23.472656 18.890625 23.515625 17.964844 C 23.554688 17.035156 23.566406 16.738281 23.566406 14.371094 C 23.566406 12.003906 23.554688 11.710938 23.515625 10.78125 C 23.472656 9.851562 23.324219 9.21875 23.109375 8.667969 C 22.886719 8.09375 22.589844 7.609375 22.105469 7.125 C 21.621094 6.640625 21.136719 6.339844 20.5625 6.121094 C 20.011719 5.90625 19.375 5.757812 18.449219 5.714844 C 17.519531 5.675781 17.21875 5.667969 14.855469 5.667969 " fill-opacity="1" fill-rule="nonzero"/></g><path fill="#cbc8c8" d="M 14.855469 9.902344 C 12.382812 9.902344 10.382812 11.902344 10.382812 14.371094 C 10.382812 16.839844 12.386719 18.84375 14.859375 18.84375 C 17.328125 18.84375 19.332031 16.84375 19.332031 14.371094 C 19.328125 11.902344 17.324219 9.902344 14.855469 9.902344 M 14.855469 17.277344 C 13.25 17.277344 11.953125 15.980469 11.953125 14.375 C 11.953125 12.773438 13.25 11.476562 14.855469 11.476562 C 16.457031 11.476562 17.753906 12.773438 17.753906 14.375 C 17.757812 15.976562 16.457031 17.277344 14.855469 17.277344 " fill-opacity="1" fill-rule="nonzero"/><path fill="#cbc8c8" d="M 20.546875 9.726562 C 20.546875 10.304688 20.078125 10.773438 19.503906 10.773438 C 18.925781 10.773438 18.457031 10.304688 18.457031 9.726562 C 18.457031 9.152344 18.925781 8.679688 19.503906 8.679688 C 20.078125 8.679688 20.546875 9.148438 20.546875 9.726562 " fill-opacity="1" fill-rule="nonzero"/></svg>