<svg xmlns="http://www.w3.org/2000/svg" xmlns:xlink="http://www.w3.org/1999/xlink" width="40" zoomAndPan="magnify" viewBox="0 0 30 30.000001" height="40" preserveAspectRatio="xMidYMid meet" version="1.0"><defs><clipPath id="30ddcf2639"><path d="M 1.371094 0.886719 L 28.226562 0.886719 L 28.226562 27.742188 L 1.371094 27.742188 Z M 1.371094 0.886719 " clip-rule="nonzero"/></clipPath><clipPath id="faa4b74ec3"><path d="M 10.039062 5.011719 L 20.203125 5.011719 L 20.203125 23.882812 L 10.039062 23.882812 Z M 10.039062 5.011719 " clip-rule="nonzero"/></clipPath></defs><g clip-path="url(#30ddcf2639)"><path fill="#403f3f" d="M 14.800781 0.886719 C 7.382812 0.886719 1.371094 6.898438 1.371094 14.316406 C 1.371094 21.730469 7.382812 27.742188 14.800781 27.742188 C 22.214844 27.742188 28.226562 21.730469 28.226562 14.316406 C 28.226562 6.898438 22.214844 0.886719 14.800781 0.886719 " fill-opacity="1" fill-rule="nonzero"/></g><g clip-path="url(#faa4b74ec3)"><path fill="#cbc8c8" d="M 19.625 15.277344 L 20.074219 11.921875 L 16.632812 11.921875 L 16.632812 9.78125 C 16.632812 8.808594 16.914062 8.148438 18.355469 8.148438 L 20.195312 8.144531 L 20.195312 5.144531 C 19.875 5.105469 18.785156 5.011719 17.515625 5.011719 C 14.863281 5.011719 13.046875 6.578125 13.046875 9.449219 L 13.046875 11.921875 L 10.046875 11.921875 L 10.046875 15.277344 L 13.046875 15.277344 L 13.046875 23.882812 L 16.632812 23.882812 L 16.632812 15.277344 Z M 19.625 15.277344 " fill-opacity="1" fill-rule="nonzero"/></g></svg>