<svg xmlns="http://www.w3.org/2000/svg" xmlns:xlink="http://www.w3.org/1999/xlink" width="40" zoomAndPan="magnify" viewBox="0 0 30 30.000001" height="40" preserveAspectRatio="xMidYMid meet" version="1.0"><defs><clipPath id="8675aaec94"><path d="M 1.371094 0.886719 L 28.226562 0.886719 L 28.226562 27.742188 L 1.371094 27.742188 Z M 1.371094 0.886719 " clip-rule="nonzero"/></clipPath><clipPath id="30e5e1ad6b"><path d="M 5.738281 7.960938 L 24.609375 7.960938 L 24.609375 21 L 5.738281 21 Z M 5.738281 7.960938 " clip-rule="nonzero"/></clipPath></defs><g clip-path="url(#8675aaec94)"><path fill="#403f3f" d="M 14.800781 0.886719 C 7.382812 0.886719 1.371094 6.898438 1.371094 14.316406 C 1.371094 21.730469 7.382812 27.742188 14.800781 27.742188 C 22.214844 27.742188 28.226562 21.730469 28.226562 14.316406 C 28.226562 6.898438 22.214844 0.886719 14.800781 0.886719 " fill-opacity="1" fill-rule="nonzero"/></g><g clip-path="url(#30e5e1ad6b)"><path fill="#cbc8c8" d="M 24.195312 10.011719 C 24.085938 9.609375 23.882812 9.261719 23.585938 8.96875 C 23.285156 8.675781 22.933594 8.472656 22.527344 8.367188 C 21.058594 7.972656 15.160156 7.972656 15.160156 7.972656 C 15.160156 7.972656 9.261719 7.984375 7.796875 8.378906 C 7.390625 8.484375 7.039062 8.6875 6.738281 8.980469 C 6.441406 9.273438 6.238281 9.621094 6.125 10.023438 C 5.738281 11.464844 5.738281 14.480469 5.738281 14.480469 C 5.738281 14.480469 5.738281 17.496094 6.136719 18.949219 C 6.25 19.347656 6.453125 19.695312 6.75 19.988281 C 7.050781 20.285156 7.402344 20.484375 7.808594 20.59375 C 9.273438 20.988281 15.171875 20.988281 15.171875 20.988281 C 15.171875 20.988281 21.074219 20.988281 22.539062 20.59375 C 22.945312 20.484375 23.296875 20.285156 23.597656 19.988281 C 23.894531 19.695312 24.097656 19.347656 24.210938 18.949219 C 24.609375 17.507812 24.609375 14.480469 24.609375 14.480469 C 24.609375 14.480469 24.597656 11.464844 24.195312 10.011719 Z M 24.195312 10.011719 " fill-opacity="1" fill-rule="nonzero"/></g><path fill="#403f3f" d="M 13.285156 17.269531 L 18.175781 14.480469 L 13.285156 11.691406 Z M 13.285156 17.269531 " fill-opacity="1" fill-rule="nonzero"/></svg>