<svg xmlns="http://www.w3.org/2000/svg" xmlns:xlink="http://www.w3.org/1999/xlink" width="500" zoomAndPan="magnify" viewBox="0 0 375 374.999991" height="500" preserveAspectRatio="xMidYMid meet" version="1.0"><defs><g/></defs><g fill="#202020" fill-opacity="1"><g transform="translate(38.960932, 328.733544)"><g><path d="M 133.953125 -225.992188 C 112.175781 -225.992188 90.808594 -219.007812 76.015625 -202.160156 L 76.015625 -292.558594 L 11.917969 -292.558594 L 11.917969 0 L 76.015625 0 L 76.015625 -22.1875 C 91.21875 -3.289062 113.40625 2.875 134.773438 2.875 C 205.039062 2.875 241.609375 -53.007812 241.609375 -114.230469 C 241.609375 -175.042969 206.269531 -225.992188 133.953125 -225.992188 Z M 126.96875 -59.167969 C 99.027344 -59.167969 76.015625 -83 76.015625 -112.585938 C 76.015625 -142.171875 99.027344 -166.414062 126.96875 -166.414062 C 160.25 -166.414062 176.6875 -139.707031 176.6875 -112.585938 C 176.6875 -85.878906 159.839844 -59.167969 126.96875 -59.167969 Z M 126.96875 -59.167969 "/></g></g></g><g fill="#2c80b2" fill-opacity="1"><g transform="translate(260.246296, 329.677698)"><g><path d="M 43.554688 -88.632812 C 18.234375 -88.632812 -2.027344 -70.398438 -2.027344 -43.554688 C -2.027344 -21.273438 18.234375 1.519531 43.554688 1.519531 C 70.90625 1.519531 90.65625 -21.273438 90.65625 -43.554688 C 90.65625 -70.398438 70.90625 -88.632812 43.554688 -88.632812 Z M 43.554688 -88.632812 "/></g></g></g></svg>