<svg xmlns="http://www.w3.org/2000/svg" xmlns:xlink="http://www.w3.org/1999/xlink" width="40" zoomAndPan="magnify" viewBox="0 0 30 30.000001" height="40" preserveAspectRatio="xMidYMid meet" version="1.0"><defs><clipPath id="37d59f7ee4"><path d="M 1.5 1.160156 L 28.355469 1.160156 L 28.355469 28.015625 L 1.5 28.015625 Z M 1.5 1.160156 " clip-rule="nonzero"/></clipPath></defs><g clip-path="url(#37d59f7ee4)"><path fill="#396791" d="M 28.355469 23.933594 C 28.355469 26.1875 26.523438 28.015625 24.273438 28.015625 L 5.582031 28.015625 C 3.332031 28.015625 1.5 26.1875 1.5 23.933594 L 1.5 5.242188 C 1.5 2.992188 3.332031 1.160156 5.582031 1.160156 L 24.273438 1.160156 C 26.523438 1.160156 28.355469 2.992188 28.355469 5.242188 Z M 28.355469 23.933594 " fill-opacity="1" fill-rule="nonzero"/></g><path fill="#ffffff" d="M 9.3125 7.113281 L 20.921875 7.113281 C 22.023438 7.113281 22.929688 8.015625 22.929688 9.121094 L 22.929688 20.730469 C 22.929688 21.832031 22.027344 22.734375 20.921875 22.734375 L 9.3125 22.734375 C 8.210938 22.734375 7.304688 21.832031 7.304688 20.730469 L 7.304688 9.121094 C 7.304688 8.015625 8.207031 7.113281 9.3125 7.113281 Z M 18.679688 8.851562 C 18.292969 8.851562 17.980469 9.167969 17.980469 9.558594 L 17.980469 11.242188 C 17.980469 11.628906 18.296875 11.949219 18.679688 11.949219 L 20.441406 11.949219 C 20.828125 11.949219 21.140625 11.628906 21.140625 11.242188 L 21.140625 9.558594 C 21.140625 9.167969 20.824219 8.851562 20.441406 8.851562 Z M 21.160156 13.722656 L 19.785156 13.722656 C 19.914062 14.152344 19.988281 14.597656 19.988281 15.0625 C 19.988281 17.660156 17.8125 19.765625 15.136719 19.765625 C 12.460938 19.765625 10.285156 17.660156 10.285156 15.0625 C 10.285156 14.597656 10.355469 14.148438 10.484375 13.722656 L 9.050781 13.722656 L 9.050781 20.320312 C 9.050781 20.660156 9.332031 20.9375 9.671875 20.9375 L 20.546875 20.9375 C 20.886719 20.9375 21.167969 20.65625 21.167969 20.320312 Z M 15.125 11.855469 C 13.398438 11.855469 11.992188 13.21875 11.992188 14.894531 C 11.992188 16.570312 13.398438 17.933594 15.125 17.933594 C 16.859375 17.933594 18.257812 16.570312 18.257812 14.894531 C 18.265625 13.207031 16.863281 11.855469 15.125 11.855469 Z M 15.125 11.855469 " fill-opacity="1" fill-rule="nonzero"/></svg>