<svg xmlns="http://www.w3.org/2000/svg" xmlns:xlink="http://www.w3.org/1999/xlink" width="551" zoomAndPan="magnify" viewBox="0 0 413.25 225" height="300" preserveAspectRatio="xMidYMid meet" version="1.0"><defs><g/></defs><g fill="#ffffff" fill-opacity="1"><g transform="translate(11.697542, 183.765829)"><g><path d="M 66.214844 -111.710938 C 55.449219 -111.710938 44.886719 -108.257812 37.574219 -99.929688 L 37.574219 -144.613281 L 5.890625 -144.613281 L 5.890625 0 L 37.574219 0 L 37.574219 -10.96875 C 45.089844 -1.625 56.058594 1.421875 66.621094 1.421875 C 101.351562 1.421875 119.429688 -26.199219 119.429688 -56.464844 C 119.429688 -86.523438 101.960938 -111.710938 66.214844 -111.710938 Z M 62.761719 -29.246094 C 48.949219 -29.246094 37.574219 -41.027344 37.574219 -55.652344 C 37.574219 -70.277344 48.949219 -82.257812 62.761719 -82.257812 C 79.210938 -82.257812 87.335938 -69.058594 87.335938 -55.652344 C 87.335938 -42.449219 79.007812 -29.246094 62.761719 -29.246094 Z M 62.761719 -29.246094 "/></g></g></g><g fill="#ffffff" fill-opacity="1"><g transform="translate(111.955237, 183.765829)"><g><path d="M 116.179688 -55.246094 C 116.179688 -92.820312 87.742188 -111.507812 59.511719 -111.507812 C 30.871094 -111.507812 2.640625 -92.820312 2.640625 -55.246094 C 2.640625 -17.671875 30.871094 1.21875 59.308594 1.21875 C 82.054688 1.21875 104.601562 -10.765625 112.929688 -34.730469 L 78.195312 -34.730469 C 73.523438 -29.652344 66.824219 -27.214844 59.714844 -27.214844 C 49.964844 -27.417969 40.011719 -32.496094 36.152344 -42.652344 L 114.960938 -42.652344 C 115.773438 -46.714844 116.179688 -50.777344 116.179688 -55.246094 Z M 81.242188 -67.636719 L 37.371094 -67.636719 C 40.621094 -78.398438 49.355469 -83.679688 58.902344 -83.679688 C 69.261719 -83.679688 78.195312 -78.601562 81.242188 -67.636719 Z M 81.242188 -67.636719 "/></g></g></g><g fill="#ffffff" fill-opacity="1"><g transform="translate(210.724998, 183.765829)"><g><path d="M 86.929688 -109.882812 L 2.84375 -109.882812 L 2.84375 -80.835938 L 42.855469 -80.835938 L 2.4375 -19.296875 L 2.4375 0 L 87.335938 0 L 87.335938 -30.261719 L 45.089844 -30.261719 L 86.929688 -92.210938 Z M 86.929688 -109.882812 "/></g></g></g><g fill="#ffffff" fill-opacity="1"><g transform="translate(291.219591, 182.339241)"><g><path d="M 73.117188 0.203125 L 72.105469 -26.199219 C 69.261719 -25.589844 66.011719 -25.183594 62.964844 -25.183594 C 55.246094 -25.183594 48.136719 -28.230469 48.136719 -37.980469 L 48.136719 -81.242188 L 71.089844 -81.242188 L 71.089844 -108.664062 L 48.136719 -108.664062 L 48.136719 -132.425781 L 16.25 -129.582031 L 16.25 -108.664062 L 1.828125 -108.664062 L 1.828125 -81.242188 L 16.25 -81.242188 L 16.25 -37.980469 C 16.25 -9.546875 30.871094 1.828125 55.042969 1.828125 C 60.527344 1.828125 66.621094 1.21875 73.117188 0.203125 Z M 73.117188 0.203125 "/></g></g></g><g fill="#2c80b2" fill-opacity="1"><g transform="translate(362.683052, 184.313926)"><g><path d="M 17.46875 -35.542969 C 7.3125 -35.542969 -0.8125 -28.230469 -0.8125 -17.46875 C -0.8125 -8.53125 7.3125 0.609375 17.46875 0.609375 C 28.433594 0.609375 36.355469 -8.53125 36.355469 -17.46875 C 36.355469 -28.230469 28.433594 -35.542969 17.46875 -35.542969 Z M 17.46875 -35.542969 "/></g></g></g></svg>