<svg xmlns="http://www.w3.org/2000/svg" xmlns:xlink="http://www.w3.org/1999/xlink" width="40" zoomAndPan="magnify" viewBox="0 0 30 30.000001" height="40" preserveAspectRatio="xMidYMid meet" version="1.0"><defs><clipPath id="b98420c70f"><path d="M 1.644531 1.015625 L 28.5 1.015625 L 28.5 27.871094 L 1.644531 27.871094 Z M 1.644531 1.015625 " clip-rule="nonzero"/></clipPath></defs><g clip-path="url(#b98420c70f)"><path fill="#25d366" d="M 24.921875 27.863281 L 5.207031 27.863281 C 3.238281 27.863281 1.644531 26.269531 1.644531 24.300781 L 1.644531 4.585938 C 1.644531 2.617188 3.238281 1.023438 5.207031 1.023438 L 24.941406 1.023438 C 26.90625 1.023438 28.5 2.617188 28.5 4.585938 L 28.5 24.320312 C 28.480469 26.269531 26.890625 27.863281 24.921875 27.863281 Z M 24.921875 27.863281 " fill-opacity="1" fill-rule="nonzero"/></g><path fill="#ffffff" d="M 21.503906 7.644531 C 19.824219 5.964844 17.585938 5.03125 15.207031 5.03125 C 10.285156 5.03125 6.296875 9.023438 6.296875 13.941406 C 6.296875 15.515625 6.707031 17.054688 7.496094 18.398438 L 6.226562 23.011719 L 10.949219 21.777344 C 12.253906 22.496094 13.722656 22.871094 15.207031 22.871094 C 20.125 22.871094 24.117188 18.863281 24.117188 13.960938 C 24.097656 11.5625 23.1875 9.328125 21.503906 7.644531 Z M 15.1875 21.367188 C 13.863281 21.367188 12.558594 21.007812 11.414062 20.328125 L 11.144531 20.167969 L 8.335938 20.902344 L 9.089844 18.164062 L 8.910156 17.878906 C 8.175781 16.699219 7.78125 15.339844 7.78125 13.941406 C 7.78125 9.863281 11.109375 6.535156 15.1875 6.535156 C 17.175781 6.535156 19.035156 7.304688 20.429688 8.699219 C 21.828125 10.097656 22.597656 11.957031 22.597656 13.941406 C 22.597656 18.039062 19.269531 21.367188 15.1875 21.367188 Z M 19.25 15.804688 C 19.035156 15.695312 17.925781 15.160156 17.730469 15.070312 C 17.53125 15 17.371094 14.960938 17.226562 15.175781 C 17.085938 15.390625 16.65625 15.910156 16.53125 16.054688 C 16.40625 16.195312 16.261719 16.214844 16.046875 16.109375 C 15.832031 16 15.097656 15.765625 14.257812 15 C 13.597656 14.40625 13.148438 13.675781 13.023438 13.460938 C 12.898438 13.246094 13.007812 13.121094 13.113281 13.011719 C 13.222656 12.90625 13.328125 12.742188 13.453125 12.617188 C 13.5625 12.492188 13.597656 12.402344 13.667969 12.242188 C 13.738281 12.101562 13.703125 11.957031 13.648438 11.847656 C 13.597656 11.742188 13.148438 10.632812 12.96875 10.203125 C 12.792969 9.773438 12.613281 9.828125 12.46875 9.828125 C 12.34375 9.828125 12.183594 9.828125 12.039062 9.828125 C 11.898438 9.828125 11.644531 9.882812 11.449219 10.113281 C 11.253906 10.328125 10.664062 10.882812 10.664062 11.972656 C 10.664062 13.066406 11.46875 14.121094 11.574219 14.28125 C 11.683594 14.425781 13.148438 16.679688 15.386719 17.644531 C 15.921875 17.878906 16.332031 18.003906 16.65625 18.109375 C 17.191406 18.273438 17.675781 18.253906 18.050781 18.199219 C 18.480469 18.128906 19.375 17.664062 19.554688 17.144531 C 19.734375 16.625 19.734375 16.179688 19.679688 16.089844 C 19.625 15.980469 19.484375 15.929688 19.25 15.804688 Z M 19.25 15.804688 " fill-opacity="1" fill-rule="evenodd"/></svg>