<svg xmlns="http://www.w3.org/2000/svg" xmlns:xlink="http://www.w3.org/1999/xlink" width="40" zoomAndPan="magnify" viewBox="0 0 30 30.000001" height="40" preserveAspectRatio="xMidYMid meet" version="1.0"><defs><clipPath id="eb40e7a0d6"><path d="M 1.789062 1.160156 L 28.644531 1.160156 L 28.644531 28.015625 L 1.789062 28.015625 Z M 1.789062 1.160156 " clip-rule="nonzero"/></clipPath></defs><g clip-path="url(#eb40e7a0d6)"><path fill="#e52d27" d="M 28.644531 23.933594 C 28.644531 26.1875 26.816406 28.015625 24.5625 28.015625 L 5.871094 28.015625 C 3.621094 28.015625 1.789062 26.1875 1.789062 23.933594 L 1.789062 5.242188 C 1.789062 2.992188 3.621094 1.160156 5.871094 1.160156 L 24.5625 1.160156 C 26.816406 1.160156 28.644531 2.992188 28.644531 5.242188 Z M 28.644531 23.933594 " fill-opacity="1" fill-rule="nonzero"/></g><path fill="#ffffff" d="M 24.738281 14.800781 C 24.738281 16.285156 24.738281 17.859375 24.40625 19.296875 C 24.171875 20.3125 23.34375 21.054688 22.347656 21.164062 C 19.988281 21.425781 17.597656 21.433594 15.21875 21.425781 C 12.839844 21.425781 10.457031 21.425781 8.09375 21.164062 C 7.101562 21.054688 6.269531 20.3125 6.035156 19.296875 C 5.703125 17.859375 5.703125 16.285156 5.703125 14.800781 C 5.703125 13.316406 5.707031 11.742188 6.035156 10.304688 C 6.269531 9.292969 7.09375 8.546875 8.09375 8.4375 C 10.457031 8.171875 12.84375 8.171875 15.21875 8.171875 C 17.597656 8.171875 19.984375 8.171875 22.347656 8.4375 C 23.339844 8.546875 24.171875 9.292969 24.40625 10.304688 C 24.738281 11.742188 24.738281 13.316406 24.738281 14.800781 Z M 24.738281 14.800781 " fill-opacity="1" fill-rule="nonzero"/><path fill="#e52d27" d="M 13.21875 11.261719 L 13.21875 18.375 L 18.742188 14.816406 Z M 13.21875 11.261719 " fill-opacity="1" fill-rule="nonzero"/></svg>