<svg xmlns="http://www.w3.org/2000/svg" xmlns:xlink="http://www.w3.org/1999/xlink" width="40" zoomAndPan="magnify" viewBox="0 0 30 30.000001" height="40" preserveAspectRatio="xMidYMid meet" version="1.0"><defs><clipPath id="f3d7fb3273"><path d="M 2.445312 1.960938 L 27.847656 1.960938 L 27.847656 27.363281 L 2.445312 27.363281 Z M 2.445312 1.960938 " clip-rule="nonzero"/></clipPath><clipPath id="ed083a01a1"><path d="M 6.683594 6.578125 L 23.378906 6.578125 L 23.378906 22.546875 L 6.683594 22.546875 Z M 6.683594 6.578125 " clip-rule="nonzero"/></clipPath></defs><g clip-path="url(#f3d7fb3273)"><path fill="#ffffff" d="M 15.144531 1.960938 C 8.128906 1.960938 2.445312 7.644531 2.445312 14.660156 C 2.445312 21.675781 8.128906 27.363281 15.144531 27.363281 C 22.160156 27.363281 27.847656 21.675781 27.847656 14.660156 C 27.847656 7.644531 22.160156 1.960938 15.144531 1.960938 " fill-opacity="1" fill-rule="nonzero"/></g><g clip-path="url(#ed083a01a1)"><path fill="#202020" d="M 22.867188 6.582031 C 22.84375 6.582031 22.816406 6.585938 22.792969 6.589844 L 22.789062 6.589844 L 20.242188 7.023438 C 20.082031 7.054688 19.945312 7.164062 19.886719 7.316406 C 19.886719 7.316406 19.886719 7.320312 19.886719 7.320312 L 18.703125 10.355469 L 7.167969 10.644531 C 7.035156 10.648438 6.910156 10.707031 6.824219 10.808594 C 6.738281 10.910156 6.695312 11.042969 6.710938 11.175781 L 7.347656 16.453125 C 7.375 16.675781 7.558594 16.851562 7.78125 16.867188 L 16.003906 17.523438 L 17.632812 18.808594 C 17.636719 18.8125 17.636719 18.8125 17.640625 18.8125 C 17.640625 18.816406 17.644531 18.816406 17.644531 18.816406 C 17.648438 18.816406 17.648438 18.820312 17.652344 18.820312 C 17.949219 19.042969 18.023438 19.347656 17.980469 19.515625 C 17.957031 19.609375 17.917969 19.679688 17.832031 19.734375 C 17.746094 19.789062 17.59375 19.828125 17.339844 19.816406 C 17.335938 19.816406 17.335938 19.816406 17.335938 19.816406 C 17.328125 19.8125 17.320312 19.816406 17.308594 19.816406 L 17.304688 19.816406 L 7.496094 19.84375 C 7.238281 19.839844 7.023438 20.058594 7.023438 20.316406 C 7.023438 20.574219 7.242188 20.789062 7.5 20.789062 L 8.21875 20.785156 C 7.953125 20.957031 7.773438 21.253906 7.773438 21.589844 C 7.773438 22.117188 8.203125 22.546875 8.726562 22.546875 C 9.25 22.546875 9.679688 22.117188 9.679688 21.589844 C 9.679688 21.25 9.503906 20.949219 9.234375 20.78125 L 17.308594 20.757812 C 17.019531 20.921875 16.820312 21.234375 16.820312 21.589844 C 16.820312 22.117188 17.25 22.546875 17.773438 22.546875 C 18.300781 22.546875 18.730469 22.117188 18.730469 21.589844 C 18.730469 21.136719 18.40625 20.75 17.976562 20.65625 C 18.382812 20.511719 18.695312 20.214844 18.886719 19.761719 C 18.890625 19.757812 18.890625 19.75 18.894531 19.746094 C 19.042969 19.152344 18.78125 18.507812 18.238281 18.089844 C 18.238281 18.085938 18.234375 18.085938 18.234375 18.085938 C 18.234375 18.082031 18.234375 18.082031 18.230469 18.082031 C 18.226562 18.074219 18.222656 18.070312 18.214844 18.066406 L 17.0625 17.15625 L 20.664062 7.910156 L 22.949219 7.519531 C 23.191406 7.480469 23.367188 7.257812 23.34375 7.011719 C 23.324219 6.769531 23.113281 6.578125 22.867188 6.582031 Z M 18.355469 11.085938 L 17.691406 12.792969 L 16.824219 12.792969 L 16.824219 11.125 Z M 16.496094 11.132812 L 16.496094 12.792969 L 14.898438 12.792969 L 14.898438 11.171875 Z M 14.566406 11.179688 L 14.566406 12.792969 L 12.96875 12.792969 L 12.96875 11.21875 Z M 12.636719 11.230469 L 12.636719 12.792969 L 11.039062 12.792969 L 11.039062 11.269531 Z M 10.707031 11.277344 L 10.707031 12.792969 L 9.109375 12.792969 L 9.109375 11.316406 Z M 8.777344 11.324219 L 8.777344 12.792969 L 7.605469 12.792969 L 7.433594 11.359375 Z M 7.648438 13.121094 L 8.777344 13.121094 L 8.777344 14.621094 L 7.828125 14.621094 Z M 9.109375 13.121094 L 10.707031 13.121094 L 10.707031 14.621094 L 9.109375 14.621094 Z M 11.039062 13.121094 L 12.636719 13.121094 L 12.636719 14.621094 L 11.039062 14.621094 Z M 12.96875 13.121094 L 14.566406 13.121094 L 14.566406 14.621094 L 12.96875 14.621094 Z M 14.898438 13.121094 L 16.496094 13.121094 L 16.496094 14.621094 L 14.898438 14.621094 Z M 16.824219 13.121094 L 17.5625 13.121094 L 16.980469 14.621094 L 16.824219 14.621094 Z M 7.867188 14.949219 L 8.78125 14.949219 L 8.78125 16.027344 L 7.988281 15.964844 Z M 9.109375 14.949219 L 10.707031 14.949219 L 10.707031 16.179688 L 9.109375 16.050781 Z M 11.039062 14.949219 L 12.636719 14.949219 L 12.636719 16.332031 L 11.039062 16.207031 Z M 12.96875 14.949219 L 14.566406 14.949219 L 14.566406 16.488281 L 12.96875 16.359375 Z M 14.898438 14.949219 L 16.496094 14.949219 L 16.496094 15.863281 L 16.191406 16.640625 C 16.152344 16.621094 16.109375 16.609375 16.066406 16.609375 L 14.898438 16.515625 Z M 16.824219 14.949219 L 16.851562 14.949219 L 16.824219 15.019531 Z M 8.726562 21.03125 C 9.039062 21.03125 9.289062 21.28125 9.289062 21.59375 C 9.289062 21.90625 9.039062 22.152344 8.726562 22.152344 C 8.417969 22.152344 8.167969 21.90625 8.167969 21.59375 C 8.167969 21.28125 8.417969 21.03125 8.726562 21.03125 Z M 17.777344 21.03125 C 18.085938 21.03125 18.335938 21.28125 18.335938 21.59375 C 18.335938 21.90625 18.085938 22.152344 17.777344 22.152344 C 17.464844 22.152344 17.214844 21.90625 17.214844 21.59375 C 17.214844 21.28125 17.464844 21.03125 17.777344 21.03125 Z M 8.726562 21.296875 C 8.558594 21.296875 8.421875 21.433594 8.421875 21.601562 C 8.421875 21.773438 8.558594 21.90625 8.726562 21.90625 C 8.898438 21.90625 9.03125 21.773438 9.03125 21.601562 C 9.03125 21.433594 8.898438 21.296875 8.726562 21.296875 Z M 17.777344 21.296875 C 17.605469 21.296875 17.472656 21.433594 17.472656 21.601562 C 17.472656 21.773438 17.605469 21.90625 17.777344 21.90625 C 17.945312 21.90625 18.082031 21.773438 18.082031 21.601562 C 18.082031 21.433594 17.945312 21.296875 17.777344 21.296875 Z M 17.777344 21.296875 " fill-opacity="1" fill-rule="nonzero"/></g></svg>