<svg xmlns="http://www.w3.org/2000/svg" xmlns:xlink="http://www.w3.org/1999/xlink" width="40" zoomAndPan="magnify" viewBox="0 0 30 30.000001" height="40" preserveAspectRatio="xMidYMid meet" version="1.0"><defs><clipPath id="74632ae7bb"><path d="M 0.878906 1.035156 L 29.183594 1.035156 L 29.183594 27.890625 L 0.878906 27.890625 Z M 0.878906 1.035156 " clip-rule="nonzero"/></clipPath></defs><g clip-path="url(#74632ae7bb)"><path fill="#ffffff" d="M 28.328125 1.042969 C 28.285156 1.042969 28.238281 1.046875 28.195312 1.054688 L 23.871094 1.789062 C 23.597656 1.835938 23.367188 2.023438 23.265625 2.28125 C 23.265625 2.28125 23.265625 2.28125 23.265625 2.285156 L 21.261719 7.394531 L 1.695312 7.878906 C 1.46875 7.882812 1.257812 7.984375 1.113281 8.152344 C 0.964844 8.320312 0.894531 8.546875 0.921875 8.769531 L 2.003906 17.648438 C 2.046875 18.019531 2.359375 18.316406 2.734375 18.34375 L 16.683594 19.445312 L 19.449219 21.609375 C 19.449219 21.609375 19.453125 21.613281 19.457031 21.613281 C 19.460938 21.617188 19.464844 21.617188 19.46875 21.621094 C 19.46875 21.621094 19.472656 21.625 19.476562 21.628906 C 19.980469 22 20.105469 22.511719 20.035156 22.792969 C 19.996094 22.957031 19.933594 23.074219 19.785156 23.167969 C 19.636719 23.257812 19.382812 23.324219 18.949219 23.300781 C 18.945312 23.300781 18.945312 23.300781 18.941406 23.300781 C 18.929688 23.296875 18.914062 23.296875 18.898438 23.300781 L 18.890625 23.300781 L 2.253906 23.347656 C 1.816406 23.34375 1.449219 23.707031 1.449219 24.144531 C 1.453125 24.578125 1.820312 24.941406 2.257812 24.933594 L 3.476562 24.933594 C 3.023438 25.21875 2.722656 25.71875 2.722656 26.289062 C 2.722656 27.171875 3.449219 27.898438 4.339844 27.898438 C 5.230469 27.898438 5.960938 27.171875 5.960938 26.289062 C 5.960938 25.714844 5.65625 25.210938 5.199219 24.925781 L 18.898438 24.886719 C 18.40625 25.164062 18.070312 25.6875 18.070312 26.289062 C 18.070312 27.171875 18.796875 27.898438 19.6875 27.898438 C 20.578125 27.898438 21.308594 27.171875 21.308594 26.289062 C 21.308594 25.519531 20.757812 24.871094 20.03125 24.714844 C 20.71875 24.472656 21.246094 23.972656 21.574219 23.210938 C 21.578125 23.203125 21.582031 23.191406 21.585938 23.183594 C 21.835938 22.1875 21.390625 21.101562 20.472656 20.398438 C 20.472656 20.394531 20.46875 20.390625 20.46875 20.390625 C 20.464844 20.386719 20.464844 20.382812 20.460938 20.382812 C 20.453125 20.371094 20.445312 20.363281 20.4375 20.355469 L 18.476562 18.828125 L 24.585938 3.277344 L 28.460938 2.621094 L 28.464844 2.621094 C 28.871094 2.554688 29.167969 2.179688 29.136719 1.769531 C 29.101562 1.359375 28.738281 1.039062 28.328125 1.042969 Z M 20.671875 8.617188 L 19.546875 11.488281 L 18.078125 11.488281 L 18.078125 8.683594 Z M 17.515625 8.699219 L 17.515625 11.488281 L 14.804688 11.488281 L 14.804688 8.765625 Z M 14.242188 8.777344 L 14.242188 11.488281 L 11.53125 11.488281 L 11.53125 8.84375 Z M 10.972656 8.859375 L 10.972656 11.488281 L 8.261719 11.488281 L 8.261719 8.925781 Z M 7.699219 8.941406 L 7.699219 11.488281 L 4.988281 11.488281 L 4.988281 9.007812 Z M 4.429688 9.019531 L 4.429688 11.488281 L 2.441406 11.488281 L 2.148438 9.078125 Z M 2.507812 12.042969 L 4.429688 12.042969 L 4.429688 14.5625 L 2.8125 14.5625 Z M 4.988281 12.042969 L 7.699219 12.042969 L 7.699219 14.5625 L 4.988281 14.5625 Z M 8.261719 12.042969 L 10.972656 12.042969 L 10.972656 14.5625 L 8.261719 14.5625 Z M 11.53125 12.042969 L 14.242188 12.042969 L 14.242188 14.5625 L 11.53125 14.5625 Z M 14.804688 12.042969 L 17.515625 12.042969 L 17.515625 14.5625 L 14.804688 14.5625 Z M 18.078125 12.042969 L 19.328125 12.042969 L 18.339844 14.5625 L 18.078125 14.5625 Z M 2.882812 15.117188 L 4.429688 15.117188 L 4.429688 16.929688 L 3.089844 16.820312 L 2.882812 15.121094 Z M 4.988281 15.117188 L 7.699219 15.117188 L 7.699219 17.1875 L 4.988281 16.972656 Z M 8.261719 15.117188 L 10.972656 15.117188 L 10.972656 17.445312 L 8.261719 17.230469 Z M 11.535156 15.117188 L 14.246094 15.117188 L 14.246094 17.703125 L 11.535156 17.492188 Z M 14.804688 15.117188 L 17.515625 15.117188 L 17.515625 16.652344 L 17 17.964844 C 16.933594 17.929688 16.863281 17.910156 16.789062 17.90625 L 14.804688 17.75 Z M 18.078125 15.117188 L 18.117188 15.117188 L 18.078125 15.234375 Z M 4.339844 25.34375 C 4.871094 25.34375 5.292969 25.761719 5.292969 26.289062 C 5.292969 26.8125 4.871094 27.230469 4.339844 27.230469 C 3.8125 27.230469 3.390625 26.8125 3.390625 26.289062 C 3.390625 25.761719 3.8125 25.34375 4.339844 25.34375 Z M 19.6875 25.34375 C 20.21875 25.34375 20.640625 25.761719 20.640625 26.289062 C 20.640625 26.8125 20.21875 27.230469 19.6875 27.230469 C 19.160156 27.230469 18.738281 26.8125 18.738281 26.289062 C 18.738281 25.761719 19.160156 25.34375 19.6875 25.34375 Z M 4.339844 25.789062 C 4.054688 25.789062 3.824219 26.019531 3.824219 26.304688 C 3.824219 26.589844 4.054688 26.816406 4.339844 26.816406 C 4.628906 26.816406 4.859375 26.589844 4.859375 26.304688 C 4.859375 26.019531 4.628906 25.789062 4.339844 25.789062 Z M 19.6875 25.789062 C 19.402344 25.789062 19.171875 26.019531 19.171875 26.304688 C 19.171875 26.589844 19.402344 26.816406 19.6875 26.816406 C 19.976562 26.816406 20.207031 26.589844 20.207031 26.304688 C 20.207031 26.019531 19.976562 25.789062 19.6875 25.789062 Z M 19.6875 25.789062 " fill-opacity="1" fill-rule="nonzero"/></g></svg>